<?xml version="1.0" encoding="utf-8"?>
<!-- Generator: Adobe Illustrator 17.0.0, SVG Export Plug-In . SVG Version: 6.00 Build 0)  -->
<!DOCTYPE svg PUBLIC "-//W3C//DTD SVG 1.1//EN" "http://www.w3.org/Graphics/SVG/1.1/DTD/svg11.dtd">
<svg version="1.1" id="Layer_1" xmlns="http://www.w3.org/2000/svg" xmlns:xlink="http://www.w3.org/1999/xlink" x="0px" y="0px"
	 width="161.778px" height="109.197px" viewBox="0 0 161.778 109.197" enable-background="new 0 0 161.778 109.197"
	 xml:space="preserve">
<g opacity="0.8">
	<g>
		<circle fill="#3CB3E6" cx="116.988" cy="22.229" r="22.229"/>
		<path fill="#3CB3E6" d="M46.746,0c12.275,0,22.227,9.951,22.227,22.23c0,12.275-9.951,22.227-22.227,22.227
			c-12.275,0-22.234-9.952-22.234-22.227C24.512,9.951,34.47,0,46.746,0z"/>
		<path fill="#3CB3E6" d="M81.867,81.902c-28.434,0-54.596,9.164-71.779,25.136c-2.423,2.255-6.221,2.121-8.484-0.311
			c-2.255-2.43-2.117-6.228,0.314-8.483c19.383-18.016,48.519-28.345,79.949-28.345c28.831,0,57.225,10.498,77.885,28.8
			c2.485,2.198,2.714,5.988,0.52,8.477c-1.193,1.337-2.844,2.021-4.502,2.021c-1.414,0-2.835-0.5-3.975-1.513
			C133.291,91.295,107.809,81.902,81.867,81.902z"/>
	</g>
</g>
</svg>
